<?xml version="1.0" encoding="UTF-8" standalone="no"?>
<!-- Created with Inkscape (http://www.inkscape.org/) -->

<svg
   width="171.67244mm"
   height="171.04733mm"
   viewBox="0 0 171.67244 171.04733"
   version="1.1"
   id="svg755"
   xml:space="preserve"
   inkscape:export-filename="HACH logo White on Clear.png"
   inkscape:export-xdpi="112.27577"
   inkscape:export-ydpi="112.27577"
   inkscape:version="1.2.1 (9c6d41e4, 2022-07-14)"
   sodipodi:docname="HACH logo RAW.svg"
   xmlns:inkscape="http://www.inkscape.org/namespaces/inkscape"
   xmlns:sodipodi="http://sodipodi.sourceforge.net/DTD/sodipodi-0.dtd"
   xmlns="http://www.w3.org/2000/svg"
   xmlns:svg="http://www.w3.org/2000/svg"><sodipodi:namedview
     id="namedview757"
     pagecolor="#505050"
     bordercolor="#ffffff"
     borderopacity="1"
     inkscape:showpageshadow="0"
     inkscape:pageopacity="0"
     inkscape:pagecheckerboard="1"
     inkscape:deskcolor="#505050"
     inkscape:document-units="mm"
     showgrid="false"
     inkscape:zoom="0.71616992"
     inkscape:cx="180.82301"
     inkscape:cy="624.15355"
     inkscape:window-width="1920"
     inkscape:window-height="1080"
     inkscape:window-x="1920"
     inkscape:window-y="1050"
     inkscape:window-maximized="0"
     inkscape:current-layer="layer1" /><defs
     id="defs752" /><g
     inkscape:groupmode="layer"
     id="layer2"
     inkscape:label="Layer 2"
     transform="translate(-21.353291,-61.640585)"><rect
       style="fill:#000000;fill-opacity:1;stroke-width:0.264583"
       id="rect5623"
       width="199.49873"
       height="264.89001"
       x="5.9110737"
       y="16.255453" /></g><g
     inkscape:label="Layer 1"
     inkscape:groupmode="layer"
     id="layer1"
     transform="translate(-21.353291,-61.640585)"><path
       id="path999"
       style="fill:#840000;fill-opacity:1;stroke:none;stroke-width:0.322581"
       d="m 46.608008,61.640682 c -5.618265,0 -11.23662,0.114314 -11.853023,0.343131 -1.21139,0.449686 -12.321797,11.45545 -12.897404,12.775965 -0.670365,1.538011 -0.673369,62.723932 -0.0031,64.272042 0.246781,0.56999 3.118617,3.66919 6.381523,6.88744 5.050659,4.9815 6.117223,5.88532 7.175272,6.08025 3.643276,0.67123 6.808589,-2.7643 5.754688,-6.24613 -0.258785,-0.85497 -1.63935,-2.45191 -5.049821,-5.84202 l -4.693771,-4.66587 V 106.9051 78.564714 l 3.467489,-3.467489 3.468005,-3.467489 h 8.239291 8.23929 l 3.478858,3.457154 3.47834,3.456636 v 19.580717 c 0,16.062497 0.08108,19.767207 0.451652,20.617347 0.575609,1.32051 11.686014,12.32628 12.897404,12.77596 1.264512,0.46941 62.829249,0.46941 64.093759,0 1.21139,-0.44968 12.32128,-11.45545 12.89689,-12.77596 0.37054,-0.85012 0.45217,-4.55321 0.45217,-20.606495 V 78.564714 l 3.46749,-3.467489 3.468,-3.467489 h 8.23929 8.23929 l 3.47886,3.457154 3.47834,3.456636 v 28.333674 28.33367 l -4.81883,4.84415 c -7.00757,7.04387 -7.00591,7.25229 0.12506,14.34072 l 4.69377,4.66535 v 28.34039 28.34039 l -3.46749,3.46749 -3.468,3.46749 h -8.23929 -8.23929 l -3.47886,-3.45664 -3.47834,-3.45664 v -19.58123 c 0,-16.0625 -0.0816,-19.76722 -0.45217,-20.61735 -0.57561,-1.3205 -11.6855,-12.32627 -12.89689,-12.77596 -0.6203,-0.23026 -17.24421,-0.33796 -52.272258,-0.33796 -43.281355,0 -51.525848,0.0712 -52.40197,0.45061 -1.32478,0.57375 -12.366168,11.64806 -12.817305,12.85555 -0.467813,1.25212 -0.467813,42.34522 0,43.59734 0.430713,1.15282 11.452441,12.25771 12.746509,12.84263 h 5.16e-4 c 1.225218,0.5538 22.515068,0.66532 23.96908,0.12557 1.211391,-0.44969 12.321796,-11.45547 12.897404,-12.77596 0.656714,-1.50693 0.659048,-22.49776 0.0026,-24.01404 -0.246778,-0.56999 -3.118097,-3.66973 -6.381006,-6.88795 -5.050658,-4.98153 -6.117223,-5.88532 -7.175273,-6.08025 -3.643275,-0.67123 -6.808588,2.76427 -5.754687,6.24613 0.258785,0.85497 1.639348,2.45242 5.049821,5.84253 l 4.69377,4.66587 v 8.21139 8.21138 l -3.467488,3.46749 -3.468006,3.46749 h -8.23929 -8.239291 l -3.478857,-3.45664 -3.478341,-3.45664 v -18.19682 -18.19682 l 3.467489,-3.46749 3.468005,-3.46749 H 86.99574 135.6336 l 3.47731,3.47679 3.47731,3.47679 -0.014,19.51871 c -0.009,13.01066 0.10104,19.82407 0.3297,20.43596 0.45433,1.2157 11.48957,12.29009 12.82144,12.86692 1.3011,0.56348 22.41616,0.66302 23.8988,0.11265 1.21139,-0.44969 12.32179,-11.45547 12.8974,-12.77596 0.37664,-0.864 0.45165,-6.20308 0.45165,-32.1045 0,-20.91062 -0.11114,-31.36458 -0.33951,-31.9748 -0.18661,-0.49865 -2.00414,-2.57586 -4.03903,-4.61574 l -3.69952,-3.70881 3.5879,-3.53726 c 1.97349,-1.94561 3.79102,-4.00389 4.03903,-4.57388 0.67215,-1.54513 0.67126,-62.729608 -10e-4,-64.272042 -0.57561,-1.320515 -11.6855,-12.326279 -12.89689,-12.775965 -1.23281,-0.457636 -22.47324,-0.457636 -23.70605,0 -1.21139,0.449686 -12.32179,11.45545 -12.8974,12.775965 -0.37054,0.850109 -0.45165,4.553202 -0.45165,20.606494 v 19.570378 l -3.46801,3.46749 -3.46749,3.46749 H 107.20017 78.767285 l -3.478857,-3.45664 -3.478341,-3.45663 V 95.377124 c 0,-16.062503 -0.08158,-19.767216 -0.452169,-20.617346 C 70.782311,73.439263 59.672421,62.433499 58.461031,61.983813 57.844627,61.754996 52.226272,61.640682 46.608008,61.640682 Z m 25.36331,72.468448 v 5.1e-4 c -0.444265,0 -1.098248,0.29014 -1.453658,0.64441 -0.620484,0.61848 -0.646473,1.07327 -0.646473,11.43289 0,10.35801 0.02627,10.81455 0.646473,11.4329 0.35541,0.35427 1.009393,0.6444 1.453658,0.6444 0.444263,0 1.098764,-0.29013 1.454174,-0.6444 0.584664,-0.58278 0.645956,-1.07322 0.645956,-5.15266 v -4.50877 h 3.716052 3.715535 v 4.50877 c 0,4.07944 0.0613,4.56988 0.645956,5.15266 0.828657,0.82626 2.082769,0.82318 2.915584,-0.007 0.630689,-0.62875 0.652266,-1.02469 0.629936,-11.3931 -0.0171,-7.9386 -0.125985,-10.88262 -0.418579,-11.28148 -0.637299,-0.86875 -2.330239,-0.97816 -3.109888,-0.20102 -0.600551,0.59861 -0.663009,1.0546 -0.663009,4.84724 v 4.18683 H 77.7875 74.071448 v -4.18683 c 0,-3.75736 -0.06603,-4.25266 -0.645956,-4.83071 -0.35541,-0.35427 -1.009911,-0.6444 -1.454174,-0.6444 z m 58.804682,5.1e-4 c -0.44426,0 -1.09876,0.29014 -1.45418,0.64441 -0.6205,0.61848 -0.64595,1.07327 -0.64595,11.43289 0,10.35961 0.0255,10.81492 0.64595,11.43341 0.35542,0.35427 1.00992,0.64389 1.45418,0.64389 0.44427,0 1.09876,-0.28962 1.45417,-0.64389 0.5847,-0.58278 0.64596,-1.07373 0.64596,-5.15317 v -4.50877 h 3.71553 3.71605 v 4.50877 c 0,4.07944 0.0613,4.57039 0.64596,5.15317 0.35541,0.35427 1.00991,0.64389 1.45418,0.64389 0.44424,0 1.09824,-0.28962 1.45365,-0.64389 0.62051,-0.61849 0.64648,-1.0738 0.64648,-11.43341 0,-10.35962 -0.026,-10.81441 -0.64648,-11.43289 -0.35541,-0.35427 -1.00941,-0.64441 -1.45365,-0.64441 -0.44427,0 -1.09877,0.29014 -1.45418,0.64441 -0.57991,0.57805 -0.64596,1.07335 -0.64596,4.83071 v 4.18683 h -3.71605 -3.71553 v -4.18683 c 0,-3.75736 -0.066,-4.25266 -0.64596,-4.83071 -0.35541,-0.35427 -1.0099,-0.64441 -1.45417,-0.64441 z m -33.602603,0.0165 c -0.439369,0 -0.878533,0.12861 -1.223181,0.38602 -0.546307,0.40803 -7.662065,20.69951 -7.662065,21.84932 0,0.33817 0.290545,0.90456 0.645955,1.25883 0.705638,0.70337 1.647499,0.82229 2.578654,0.32556 0.3541,-0.1889 0.948319,-1.36901 1.459343,-2.89853 l 0.861963,-2.5802 h 3.339331 3.339333 l 0.86868,2.59881 c 0.96757,2.89596 1.70949,3.57016 3.31142,3.0086 1.85131,-0.64897 1.76709,-1.14209 -2.1425,-12.58425 -2.05138,-6.00375 -3.846296,-10.74959 -4.152719,-10.97814 -0.345115,-0.25741 -0.784846,-0.38602 -1.224214,-0.38602 z m 20.033923,0.0186 c -1.02947,-0.003 -2.0477,0.20277 -3.25562,0.61702 -3.19198,1.09467 -4.85613,3.19187 -5.99963,7.56078 -0.72796,2.78126 -0.75592,5.10802 -0.0925,7.66 1.08105,4.15844 2.95134,6.54452 5.96501,7.61038 2.32205,0.8213 4.26501,0.82101 6.70553,-5.1e-4 3.15588,-1.06233 4.52012,-3.2637 2.97605,-4.80281 -0.86527,-0.86249 -1.9082,-0.81176 -3.22565,0.1571 -2.20593,1.62225 -4.98647,1.35825 -6.74687,-0.64027 -1.25782,-1.42796 -1.80351,-3.27974 -1.80351,-6.11953 0,-2.83977 0.54569,-4.69106 1.80351,-6.119 1.7604,-1.99853 4.54094,-2.26253 6.74687,-0.64027 1.31745,0.96883 2.36038,1.01957 3.22565,0.15709 1.54407,-1.53912 0.17983,-3.74049 -2.97605,-4.80281 -1.25276,-0.42169 -2.29333,-0.63405 -3.32279,-0.63717 z m -20.013769,8.61705 0.759643,2.35696 c 0.417893,1.29626 0.828863,2.53759 0.913123,2.75901 0.111383,0.2927 -0.346978,0.40255 -1.680001,0.40255 -2.074758,0 -1.994056,0.396 -0.699182,-3.43028 z"
       inkscape:export-filename="HACH logo Black on Clear.png"
       inkscape:export-xdpi="112.27577"
       inkscape:export-ydpi="112.27577" /></g></svg>
