M48
INCH,TZ
T1C0.0157
T2C0.0276
T3C0.0299
T4C0.0315
T5C0.0374
T6C0.0472
%
G90
G05
T1
X39764Y-45866
X54035Y-33268
X54035Y-35433
X54134Y-39862
X54134Y-41929
X56890Y-34744
X56890Y-41240
T2
X40157Y-59055
X43157Y-59055
X40157Y-49213
X43157Y-49213
X50740Y-45866
X53740Y-45866
X36961Y-44882
X39961Y-44882
X48575Y-59055
X51575Y-59055
X50740Y-44094
X53740Y-44094
X40157Y-53150
X43157Y-53150
X50740Y-43209
X53740Y-43209
X50740Y-44980
X53740Y-44980
X48575Y-55118
X51575Y-55118
X48575Y-49213
X51575Y-49213
X40157Y-57087
X43157Y-57087
X40157Y-47244
X43157Y-47244
X36961Y-43799
X39961Y-43799
X48575Y-61024
X51575Y-61024
X40157Y-61024
X43157Y-61024
X40157Y-51181
X43157Y-51181
X48575Y-51181
X51575Y-51181
X48575Y-57087
X51575Y-57087
X40157Y-55118
X43157Y-55118
X36961Y-42815
X39961Y-42815
X48575Y-53150
X51575Y-53150
X48575Y-47244
X51575Y-47244
T3
X52248Y-37642
X52248Y-38642
X52248Y-39642
X52248Y-40642
X53248Y-38142
X53248Y-39142
X53248Y-40142
X53248Y-41142
X52248Y-31244
X52248Y-32244
X52248Y-33244
X52248Y-34244
X53248Y-31744
X53248Y-32744
X53248Y-33744
X53248Y-34744
T4
X52756Y-61024
X54724Y-61024
X37008Y-49213
X38976Y-49213
X37008Y-47244
X38976Y-47244
X37008Y-61024
X38976Y-61024
X44457Y-46811
X44457Y-47811
X44457Y-48811
X44457Y-49811
X44457Y-50811
X44457Y-51811
X44457Y-52811
X44457Y-53811
X44457Y-54811
X44457Y-55811
X44457Y-56811
X44457Y-57811
X44457Y-58811
X44457Y-59811
X47457Y-46811
X47457Y-47811
X47457Y-48811
X47457Y-49811
X47457Y-50811
X47457Y-51811
X47457Y-52811
X47457Y-53811
X47457Y-54811
X47457Y-55811
X47457Y-56811
X47457Y-57811
X47457Y-58811
X47457Y-59811
X52756Y-47244
X54724Y-47244
X37008Y-59055
X38976Y-59055
X52756Y-49213
X54724Y-49213
X46213Y-41882
X46213Y-42882
X46213Y-43882
X46213Y-44882
X49213Y-41882
X49213Y-42882
X49213Y-43882
X49213Y-44882
X37008Y-57087
X38976Y-57087
X52756Y-51181
X54724Y-51181
X52756Y-53150
X54724Y-53150
X37008Y-55118
X38976Y-55118
X52756Y-55118
X54724Y-55118
X52756Y-57087
X54724Y-57087
X41307Y-42882
X41307Y-43882
X41307Y-44882
X44307Y-42882
X44307Y-43882
X44307Y-44882
X37008Y-53150
X38976Y-53150
X52756Y-59055
X54724Y-59055
X37008Y-51181
X38976Y-51181
T5
X57776Y-37402
X57776Y-38386
X57776Y-39370
X57776Y-40354
X57776Y-41339
X57776Y-31102
X57776Y-32087
X57776Y-33071
X57776Y-34055
X57776Y-35039
T6
X57579Y-43406
X57579Y-44783
X57579Y-46161
X57579Y-47539
X57579Y-48917
X57579Y-50295
X57579Y-51673
X57579Y-53051
X57579Y-54429
X57579Y-55807
X57579Y-57185
X57579Y-58563
X57579Y-59941
X57579Y-61319
X57579Y-62697
X57579Y-64075
X33957Y-43307
X33957Y-44685
X33957Y-46063
X33957Y-47441
X33957Y-48819
X33957Y-50197
X33957Y-51575
X33957Y-52953
X33957Y-54331
X33957Y-55709
X33957Y-57087
X33957Y-58465
X33957Y-59843
X33957Y-61220
X33957Y-62598
X33957Y-63976
T0
M30
